<?xml version="1.0" standalone="no"?>
<!DOCTYPE svg PUBLIC "-//W3C//DTD SVG 20010904//EN"
 "http://www.w3.org/TR/2001/REC-SVG-20010904/DTD/svg10.dtd">
<svg version="1.0" xmlns="http://www.w3.org/2000/svg"
 width="660.000000pt" height="660.000000pt" viewBox="0 0 660.000000 660.000000"
 preserveAspectRatio="xMidYMid meet">
<metadata>
Created by potrace 1.11, written by Peter Selinger 2001-2013
</metadata>
<g transform="translate(0.000000,660.000000) scale(0.100000,-0.100000)"
fill="#000000" stroke="none">
<path d="M3154 6199 c-85 -14 -205 -56 -274 -96 -36 -21 -104 -76 -151 -123
-73 -73 -92 -99 -136 -190 -75 -153 -102 -284 -103 -495 0 -130 15 -561 31
-865 l12 -215 -37 -72 c-22 -45 -104 -158 -214 -295 -325 -407 -335 -424 -407
-671 -61 -215 -90 -286 -221 -543 -155 -304 -164 -342 -123 -502 l20 -81 -41
-70 c-84 -142 -141 -171 -333 -171 -157 -1 -213 -36 -238 -150 -9 -41 -7 -91
6 -235 22 -236 15 -305 -50 -446 -55 -120 -64 -172 -40 -223 10 -20 29 -45 44
-55 40 -29 418 -142 651 -196 223 -51 374 -98 545 -168 127 -53 204 -68 293
-57 131 16 257 110 316 234 l26 54 87 17 c258 51 777 19 1156 -71 140 -34 148
-37 163 -66 51 -98 221 -178 380 -178 150 0 251 52 433 224 181 172 258 223
577 384 150 77 220 129 266 201 50 80 31 152 -59 214 -76 52 -193 148 -245
200 -68 68 -98 131 -108 234 -14 134 -39 192 -94 220 l-31 16 21 -24 c48 -54
59 -109 23 -109 -20 0 -21 -4 -15 -42 8 -56 81 -204 145 -295 30 -43 75 -90
109 -115 101 -74 122 -98 122 -138 0 -83 -117 -163 -315 -214 -146 -38 -223
-71 -322 -133 -243 -155 -311 -183 -468 -190 -90 -4 -104 -2 -145 19 -73 38
-86 75 -80 233 5 141 5 193 -1 663 -4 295 -6 315 -24 328 -10 8 -25 14 -32 14
-25 0 -13 28 17 40 39 16 39 40 0 40 -19 0 -42 -11 -62 -29 l-33 -29 -1 -287
-2 -287 -98 -100 c-324 -326 -544 -442 -865 -455 -155 -6 -263 6 -384 44 -121
38 -185 74 -221 124 -17 24 -56 76 -86 114 l-55 70 66 0 c80 0 131 27 161 86
40 78 16 169 -68 260 -30 33 -130 120 -221 193 -91 74 -222 184 -291 245 -146
130 -141 118 -129 316 20 328 134 669 323 969 52 82 56 92 56 150 1 146 44
256 182 460 111 164 131 211 135 316 7 146 2 144 97 33 94 -111 138 -144 222
-169 139 -40 308 5 506 134 68 45 151 91 183 102 33 11 69 29 80 40 l22 20 28
-67 c16 -38 71 -153 122 -258 99 -200 140 -314 171 -466 18 -87 22 -96 76
-161 148 -175 244 -406 275 -663 16 -129 14 -428 -4 -579 -16 -137 -14 -145
29 -146 14 0 17 -5 13 -22 -3 -13 -9 -44 -12 -70 -4 -26 -15 -54 -26 -64 -31
-28 -43 -109 -29 -191 12 -76 58 -183 93 -221 40 -43 112 -73 180 -74 141 -1
262 85 342 243 24 49 47 106 51 127 4 20 22 55 40 78 48 58 139 265 158 356
48 233 -13 596 -166 983 -87 219 -160 336 -333 529 -137 154 -223 280 -297
436 -33 69 -92 190 -130 268 -83 168 -81 153 -98 577 -12 299 -29 444 -66 553
-85 255 -264 470 -484 582 -161 82 -406 119 -586 89z m568 -916 c45 -44 64
-85 50 -109 -8 -15 -3 -26 24 -56 33 -37 34 -40 34 -125 0 -110 -22 -190 -67
-242 l-34 -40 41 -21 c22 -11 40 -24 40 -28 0 -4 3 -17 6 -29 5 -19 0 -23 -37
-33 -32 -9 -48 -9 -64 0 -28 15 -52 4 -117 -56 -65 -60 -201 -147 -272 -173
-124 -46 -294 -69 -377 -52 l-54 11 2 246 c2 223 4 247 20 259 28 21 25 145
-5 207 -43 87 -124 118 -176 69 -30 -29 -51 -115 -42 -176 8 -52 57 -131 95
-152 l28 -17 -39 -33 c-22 -18 -46 -33 -53 -33 -21 0 -56 56 -76 121 -10 32
-21 106 -25 164 l-7 106 34 35 c19 20 57 51 86 69 l51 34 89 -16 c48 -8 91
-18 96 -22 14 -14 49 -127 54 -176 4 -44 1 -55 -26 -92 -17 -24 -31 -47 -31
-52 0 -5 23 0 52 11 98 37 202 34 312 -8 9 -4 2 17 -19 58 -28 50 -35 75 -35
119 0 94 8 118 49 138 44 23 127 41 184 41 42 0 43 1 72 59 l30 59 35 -15 c19
-8 52 -30 72 -50z m-1928 -3167 c48 -20 101 -88 168 -218 99 -189 141 -263
145 -251 2 5 -5 34 -17 62 -28 72 -10 56 46 -42 26 -45 82 -136 125 -203 127
-196 177 -283 199 -342 22 -58 20 -79 -5 -46 -8 12 -4 -12 11 -61 50 -158 31
-292 -53 -372 -59 -56 -115 -77 -208 -77 -68 -1 -95 5 -185 38 -165 60 -254
85 -415 117 -137 27 -318 72 -468 116 -32 9 -69 26 -82 39 -42 39 -42 68 -2
184 45 128 47 179 12 348 -30 143 -31 176 -7 221 34 68 57 76 205 73 166 -3
214 7 266 59 43 43 59 83 87 214 14 68 23 86 54 118 41 41 69 46 124 23z"/>
<path d="M3500 5143 c-61 -22 -106 -120 -97 -210 8 -72 33 -112 92 -146 82
-46 152 -25 201 59 28 48 35 135 14 189 -14 36 -55 82 -92 101 -27 14 -89 18
-118 7z"/>
<path d="M3216 4841 c-11 -17 -1 -26 44 -41 31 -10 43 -11 52 -2 9 9 9 16 -3
27 -20 20 -84 31 -93 16z"/>
<path d="M2942 4828 c-18 -18 -14 -38 8 -38 16 0 40 26 40 44 0 11 -36 6 -48
-6z"/>
</g>
</svg>
